<mxfile host="app.diagrams.net" modified="2024-03-30T05:11:36.821Z" agent="Mozilla/5.0 (Windows NT 10.0; Win64; x64) AppleWebKit/537.36 (KHTML, like Gecko) Chrome/123.0.0.0 Safari/537.36" etag="uhIOPklHL2JxJumCSy6B" version="24.2.1" type="github">
  <diagram id="6a731a19-8d31-9384-78a2-239565b7b9f0" name="Page-1">
    <mxGraphModel dx="1648" dy="736" grid="1" gridSize="10" guides="1" tooltips="1" connect="1" arrows="1" fold="1" page="1" pageScale="1" pageWidth="827" pageHeight="1169" background="none" math="0" shadow="0">
      <root>
        <mxCell id="0" />
        <mxCell id="1" parent="0" />
        <mxCell id="-6cbJImc2EcmIfeAtQze-2260" value="Router_Synology" style="fontColor=default;verticalAlign=top;verticalLabelPosition=bottom;labelPosition=center;align=center;html=1;outlineConnect=0;fillColor=#CCCCCC;strokeColor=#6881B3;gradientColor=none;gradientDirection=north;strokeWidth=2;shape=mxgraph.networks.wireless_hub;labelBackgroundColor=default;" vertex="1" parent="1">
          <mxGeometry x="240" y="360" width="100" height="85" as="geometry" />
        </mxCell>
        <mxCell id="-6cbJImc2EcmIfeAtQze-2261" value="Router_Iptime" style="fontColor=default;verticalAlign=top;verticalLabelPosition=bottom;labelPosition=center;align=center;html=1;outlineConnect=0;fillColor=#CCCCCC;strokeColor=#6881B3;gradientColor=none;gradientDirection=north;strokeWidth=2;shape=mxgraph.networks.wireless_hub;labelBackgroundColor=default;" vertex="1" parent="1">
          <mxGeometry x="240" y="150" width="100" height="85" as="geometry" />
        </mxCell>
        <mxCell id="-6cbJImc2EcmIfeAtQze-2262" value="Router_Asus" style="fontColor=default;verticalAlign=top;verticalLabelPosition=bottom;labelPosition=center;align=center;html=1;outlineConnect=0;fillColor=#CCCCCC;strokeColor=#6881B3;gradientColor=none;gradientDirection=north;strokeWidth=2;shape=mxgraph.networks.wireless_hub;labelBackgroundColor=default;" vertex="1" parent="1">
          <mxGeometry x="520" y="150" width="100" height="85" as="geometry" />
        </mxCell>
        <mxCell id="-6cbJImc2EcmIfeAtQze-2264" value="1Gbps" style="endArrow=none;html=1;rounded=0;entryX=0.5;entryY=0;entryDx=0;entryDy=0;entryPerimeter=0;" edge="1" parent="1" source="-6cbJImc2EcmIfeAtQze-2258" target="-6cbJImc2EcmIfeAtQze-2259">
          <mxGeometry width="50" height="50" relative="1" as="geometry">
            <mxPoint x="170" y="215" as="sourcePoint" />
            <mxPoint x="170" y="315" as="targetPoint" />
          </mxGeometry>
        </mxCell>
        <mxCell id="-6cbJImc2EcmIfeAtQze-2265" value="1Gbps" style="endArrow=none;html=1;rounded=0;" edge="1" parent="1" source="-6cbJImc2EcmIfeAtQze-2257" target="-6cbJImc2EcmIfeAtQze-2258">
          <mxGeometry width="50" height="50" relative="1" as="geometry">
            <mxPoint x="54.5" y="70" as="sourcePoint" />
            <mxPoint x="54.5" y="160" as="targetPoint" />
          </mxGeometry>
        </mxCell>
        <mxCell id="-6cbJImc2EcmIfeAtQze-2257" value="Internet" style="html=1;outlineConnect=0;fillColor=#CCCCCC;strokeColor=#6881B3;gradientColor=none;gradientDirection=north;strokeWidth=2;shape=mxgraph.networks.cloud;fontColor=#ffffff;labelPosition=center;verticalLabelPosition=bottom;align=center;verticalAlign=top;labelBackgroundColor=default;" vertex="1" parent="1">
          <mxGeometry x="10" y="10" width="90" height="50" as="geometry" />
        </mxCell>
        <mxCell id="-6cbJImc2EcmIfeAtQze-2258" value="Modem" style="fontColor=default;verticalAlign=top;verticalLabelPosition=bottom;labelPosition=center;align=center;html=1;outlineConnect=0;fillColor=#CCCCCC;strokeColor=#6881B3;gradientColor=none;gradientDirection=north;strokeWidth=2;shape=mxgraph.networks.modem;labelBackgroundColor=default;" vertex="1" parent="1">
          <mxGeometry x="5" y="160" width="100" height="30" as="geometry" />
        </mxCell>
        <mxCell id="-6cbJImc2EcmIfeAtQze-2259" value="Hub" style="fontColor=default;verticalAlign=top;verticalLabelPosition=bottom;labelPosition=center;align=center;html=1;outlineConnect=0;fillColor=#CCCCCC;strokeColor=#6881B3;gradientColor=none;gradientDirection=north;strokeWidth=2;shape=mxgraph.networks.hub;labelBackgroundColor=default;" vertex="1" parent="1">
          <mxGeometry x="5" y="280" width="100" height="30" as="geometry" />
        </mxCell>
      </root>
    </mxGraphModel>
  </diagram>
</mxfile>
